  0
SECTION
  2
HEADER
  9
$ACADVER
  1
AC1009
  9
$DWGCODEPAGE
  3
undefined
  9
$INSBASE
 10
0.0
 20
0.0
 30
0.0
  9
$EXTMIN
 10
1.000000000000000E+20
 20
1.000000000000000E+20
 30
1.000000000000000E+20
  9
$EXTMAX
 10
-1.000000000000000E+20
 20
-1.000000000000000E+20
 30
-1.000000000000000E+20
  9
$LIMMIN
 10
0.0
 20
0.0
  9
$LIMMAX
 10
12.0
 20
9.0
  9
$ORTHOMODE
 70
     0
  9
$REGENMODE
 70
     1
  9
$FILLMODE
 70
     1
  9
$QTEXTMODE
 70
     0
  9
$MIRRTEXT
 70
     1
  9
$DRAGMODE
 70
     2
  9
$LTSCALE
 40
1.0
  9
$OSMODE
 70
    37
  9
$ATTMODE
 70
     1
  9
$TEXTSIZE
 40
0.2
  9
$TRACEWID
 40
0.05
  9
$TEXTSTYLE
  7
STANDARD
  9
$CLAYER
  8
0
  9
$CELTYPE
  6
BYLAYER
  9
$CECOLOR
 62
   256
  9
$DIMSCALE
 40
1.0
  9
$DIMASZ
 40
0.18
  9
$DIMEXO
 40
0.0625
  9
$DIMDLI
 40
0.38
  9
$DIMRND
 40
0.0
  9
$DIMDLE
 40
0.0
  9
$DIMEXE
 40
0.18
  9
$DIMTP
 40
0.0
  9
$DIMTM
 40
0.0
  9
$DIMTXT
 40
0.18
  9
$DIMCEN
 40
0.09
  9
$DIMTSZ
 40
0.0
  9
$DIMTOL
 70
     0
  9
$DIMLIM
 70
     0
  9
$DIMTIH
 70
     1
  9
$DIMTOH
 70
     1
  9
$DIMSE1
 70
     0
  9
$DIMSE2
 70
     0
  9
$DIMTAD
 70
     0
  9
$DIMZIN
 70
     0
  9
$DIMBLK
  1

  9
$DIMASO
 70
     1
  9
$DIMSHO
 70
     1
  9
$DIMPOST
  1

  9
$DIMAPOST
  1

  9
$DIMALT
 70
     0
  9
$DIMALTD
 70
     2
  9
$DIMALTF
 40
25.4
  9
$DIMLFAC
 40
1.0
  9
$DIMTOFL
 70
     0
  9
$DIMTVP
 40
0.0
  9
$DIMTIX
 70
     0
  9
$DIMSOXD
 70
     0
  9
$DIMSAH
 70
     0
  9
$DIMBLK1
  1

  9
$DIMBLK2
  1

  9
$DIMSTYLE
  2
STANDARD
  9
$DIMCLRD
 70
     0
  9
$DIMCLRE
 70
     0
  9
$DIMCLRT
 70
     0
  9
$DIMTFAC
 40
1.0
  9
$DIMGAP
 40
0.09
  9
$LUNITS
 70
     2
  9
$LUPREC
 70
     4
  9
$SKETCHINC
 40
0.1
  9
$FILLETRAD
 40
0.5
  9
$AUNITS
 70
     0
  9
$AUPREC
 70
     0
  9
$MENU
  1
.
  9
$ELEVATION
 40
0.0
  9
$PELEVATION
 40
0.0
  9
$THICKNESS
 40
0.0
  9
$LIMCHECK
 70
     0
  9
$CHAMFERA
 40
0.0
  9
$CHAMFERB
 40
0.0
  9
$SKPOLY
 70
     0
  9
$TDCREATE
 40
2457184.05849537
  9
$TDUPDATE
 40
2457184.05849537
  9
$TDINDWG
 40
0.0000000116
  9
$TDUSRTIMER
 40
0.0000000116
  9
$USRTIMER
 70
     1
  9
$ANGBASE
 50
0.0
  9
$ANGDIR
 70
     0
  9
$PDMODE
 70
     0
  9
$PDSIZE
 40
0.0
  9
$PLINEWID
 40
0.0
  9
$COORDS
 70
     1
  9
$SPLFRAME
 70
     0
  9
$SPLINETYPE
 70
     6
  9
$SPLINESEGS
 70
     8
  9
$ATTDIA
 70
     0
  9
$ATTREQ
 70
     1
  9
$HANDLING
 70
     1
  9
$HANDSEED
  5
100000E5
  9
$SURFTAB1
 70
     6
  9
$SURFTAB2
 70
     6
  9
$SURFTYPE
 70
     6
  9
$SURFU
 70
     6
  9
$SURFV
 70
     6
  9
$UCSNAME
  2

  9
$UCSORG
 10
0.0
 20
0.0
 30
0.0
  9
$UCSXDIR
 10
1.0
 20
0.0
 30
0.0
  9
$UCSYDIR
 10
0.0
 20
1.0
 30
0.0
  9
$PUCSNAME
  2

  9
$PUCSORG
 10
0.0
 20
0.0
 30
0.0
  9
$PUCSXDIR
 10
1.0
 20
0.0
 30
0.0
  9
$PUCSYDIR
 10
0.0
 20
1.0
 30
0.0
  9
$USERI1
 70
     0
  9
$USERI2
 70
     0
  9
$USERI3
 70
     0
  9
$USERI4
 70
     0
  9
$USERI5
 70
     0
  9
$USERR1
 40
0.0
  9
$USERR2
 40
0.0
  9
$USERR3
 40
0.0
  9
$USERR4
 40
0.0
  9
$USERR5
 40
0.0
  9
$WORLDVIEW
 70
     1
  9
$SHADEDGE
 70
     3
  9
$SHADEDIF
 70
    70
  9
$TILEMODE
 70
     1
  9
$MAXACTVP
 70
    64
  9
$PLIMCHECK
 70
     0
  9
$PEXTMIN
 10
1.000000000000000E+20
 20
1.000000000000000E+20
 30
1.000000000000000E+20
  9
$PEXTMAX
 10
-1.000000000000000E+20
 20
-1.000000000000000E+20
 30
-1.000000000000000E+20
  9
$PLIMMIN
 10
0.0
 20
0.0
  9
$PLIMMAX
 10
12.0
 20
9.0
  9
$UNITMODE
 70
     0
  9
$VISRETAIN
 70
     1
  9
$PLINEGEN
 70
     0
  9
$PSLTSCALE
 70
     1
  0
ENDSEC
  0
SECTION
  2
TABLES
  0
TABLE
  2
VPORT
 70
     1
  0
VPORT
  2
*ACTIVE
 70
     0
 10
0.0
 20
0.0
 11
1.0
 21
1.0
 12
10.42990654205607
 22
4.5
 13
0.0
 23
0.0
 14
0.5
 24
0.5
 15
0.5
 25
0.5
 16
0.0
 26
0.0
 36
1.0
 17
0.0
 27
0.0
 37
0.0
 40
9.0
 41
1.972972972850329
 42
50.0
 43
0.0
 44
0.0
 50
0.0
 51
0.0
 71
     0
 72
   100
 73
     1
 74
     3
 75
     0
 76
     0
 77
     0
 78
     0
  0
ENDTAB
  0
TABLE
  2
LTYPE
 70
     5
  0
LTYPE
  2
CONTINUOUS
 70
     0
  3
Solid line
 72
    65
 73
     0
 40
0.0
  0
LTYPE
  2
HIDDEN
 70
     0
  3
Hidden line ____ ____ ____ ____ 
 72
    83
 73
     2
 40
0.125
 49
0.25
 49
-0.125
  0
LTYPE
  2
PHANTOM
 70
     0
  3
Phantom line ______  __  __  ______  __  __
 72
    83
 73
     6
 40
0.5
 49
0.625
 49
-0.125
 49
0.125
 49
-0.125
 49
0.125
 49
-0.125
  0
LTYPE
  2
CENTER
 70
     0
  3
Center line ____ _ ____ _ ____ _
 72
    83
 73
     4
 40
0.5
 49
0.625
 49
-0.125
 49
0.125
 49
-0.125
  0
LTYPE
  2
DASHED
 70
     0
  3
Dashed line __ __ __ __
 72
    83
 73
     2
 40
0.25
 49
0.5
 49
-0.25
  0
ENDTAB
  0
TABLE
  2
LAYER
 70
     5
  0
LAYER
  2
0
 70
     0
 62
     7
  6
CONTINUOUS
  0
LAYER
  2
HIDDEN
 70
     0
 62
    -7
  6
HIDDEN
  0
LAYER
  2
VISIBLE
 70
     0
 62
     7
  6
CONTINUOUS
  0
LAYER
  2
TANGENT_LINES
 70
     0
 62
     7
  6
CONTINUOUS
  0
LAYER
  2
INVISIBLE_LINES
 70
     0
 62
    -7
  6
CONTINUOUS
  0
ENDTAB
  0
TABLE
  2
STYLE
 70
     2
  0
STYLE
  2
STANDARD
 70
     0
 40
0.0
 41
1.0
 50
0.0
 71
     0
 42
0.2
  3
txt
  4

  0
STYLE
  2
ODATTFSTYLE
 70
     0
 40
0.0
 41
1.0
 50
0.0
 71
     0
 42
0.2
  3
Verdana.ttf
  4

  0
ENDTAB
  0
TABLE
  2
VIEW
 70
     0
  0
ENDTAB
  0
TABLE
  2
UCS
 70
     0
  0
ENDTAB
  0
TABLE
  2
APPID
 70
     1
  0
APPID
  2
ACAD
 70
     0
  0
ENDTAB
  0
TABLE
  2
DIMSTYLE
 70
     1
  0
DIMSTYLE
  2
STANDARD
 70
     0
  3

  4

  5

  6

  7

 40
1.0
 41
0.18
 42
0.0625
 43
0.38
 44
0.18
 45
0.0
 46
0.0
 47
0.0
 48
0.0
140
0.18
141
0.09
142
0.0
143
25.4
144
1.0
145
0.0
146
1.0
147
0.09
 71
     0
 72
     0
 73
     1
 74
     1
 75
     0
 76
     0
 77
     0
 78
     0
170
     0
171
     2
172
     0
173
     0
174
     0
175
     0
176
     0
177
     0
178
     0
  0
ENDTAB
  0
ENDSEC
  0
SECTION
  2
BLOCKS
  0
BLOCK
  8
0
  2
$MODEL_SPACE
 70
     0
 10
0.0
 20
0.0
 30
0.0
  3
$MODEL_SPACE
  1

  0
ENDBLK
  5
21
  8
0
  0
BLOCK
 67
     1
  8
0
  2
$PAPER_SPACE
 70
     0
 10
0.0
 20
0.0
 30
0.0
  3
$PAPER_SPACE
  1

  0
ENDBLK
  5
1D
 67
     1
  8
0
  0
ENDSEC
  0
SECTION
  2
ENTITIES
  0
LINE
  5
F444E
  8
VISIBLE
 10
-3.0
 20
7.199999999999999
 30
0.125
 11
-2.749999999999999
 21
7.199999999999999
 31
0.125
  0
LINE
  5
F444F
  8
VISIBLE
 10
-3.0
 20
7.199999999999999
 30
0.125
 11
-3.0
 21
4.699999999999999
 31
0.125
  0
ARC
  5
F4450
  8
VISIBLE
 10
3.476007260456079
 20
4.7
 30
0.125
 40
6.47600726045608
 50
180.0
 51
224.0170659130019
  0
LINE
  5
F4451
  8
VISIBLE
 10
-1.181102362204726
 20
0.2000000000000017
 30
0.125
 11
1.181102362204726
 21
0.2000000000000017
 31
0.125
  0
ARC
  5
F4452
  8
VISIBLE
 10
3.476007260456079
 20
4.7
 30
-0.125
 40
6.47600726045608
 50
180.0
 51
224.0170659130019
210
0.0
220
0.0
230
-1.0
  0
LINE
  5
F4453
  8
VISIBLE
 10
3.0
 20
7.200000000000001
 30
0.125
 11
3.0
 21
4.699999999999999
 31
0.125
  0
LINE
  5
F4454
  8
VISIBLE
 10
2.749999999999999
 20
7.200000000000001
 30
0.125
 11
3.0
 21
7.200000000000001
 31
0.125
  0
LINE
  5
F4455
  8
VISIBLE
 10
2.749999999999999
 20
7.200000000000001
 30
0.125
 11
2.749999999999999
 21
7.075
 31
0.125
  0
LINE
  5
F4456
  8
VISIBLE
 10
2.749999999999999
 20
7.075
 30
0.125
 11
2.568999999999997
 21
7.075
 31
0.125
  0
LINE
  5
F4457
  8
VISIBLE
 10
2.568999999999998
 20
6.982024612644527
 30
0.125
 11
2.568999999999997
 21
7.075
 31
0.125
  0
LINE
  5
F4458
  8
VISIBLE
 10
2.656499999999997
 20
6.982024612644527
 30
0.125
 11
2.568999999999998
 21
6.982024612644527
 31
0.125
  0
LINE
  5
F4459
  8
VISIBLE
 10
2.656499999999997
 20
6.873024612644526
 30
0.125
 11
2.656499999999997
 21
6.982024612644527
 31
0.125
  0
LINE
  5
F445A
  8
VISIBLE
 10
2.656499999999997
 20
6.873024612644526
 30
0.125
 11
2.568999999999998
 21
6.873024612644526
 31
0.125
  0
LINE
  5
F445B
  8
VISIBLE
 10
2.568999999999998
 20
6.825000000000003
 30
0.125
 11
2.568999999999998
 21
6.873024612644526
 31
0.125
  0
LINE
  5
F445C
  8
VISIBLE
 10
2.430999999999998
 20
6.825000000000003
 30
0.125
 11
2.568999999999998
 21
6.825000000000003
 31
0.125
  0
LINE
  5
F445D
  8
VISIBLE
 10
2.430999999999998
 20
6.825000000000003
 30
0.125
 11
2.430999999999997
 21
6.873024612644526
 31
0.125
  0
LINE
  5
F445E
  8
VISIBLE
 10
2.430999999999997
 20
6.873024612644526
 30
0.125
 11
2.343499999999997
 21
6.873024612644526
 31
0.125
  0
LINE
  5
F445F
  8
VISIBLE
 10
2.343499999999997
 20
6.873024612644526
 30
0.125
 11
2.343499999999997
 21
6.982024612644527
 31
0.125
  0
LINE
  5
F4460
  8
VISIBLE
 10
2.430999999999997
 20
6.982024612644527
 30
0.125
 11
2.343499999999997
 21
6.982024612644527
 31
0.125
  0
LINE
  5
F4461
  8
VISIBLE
 10
2.430999999999997
 20
6.982024612644527
 30
0.125
 11
2.430999999999997
 21
7.075
 31
0.125
  0
LINE
  5
F4462
  8
VISIBLE
 10
2.430999999999997
 20
7.075
 30
0.125
 11
2.249999999999998
 21
7.075
 31
0.125
  0
LINE
  5
F4463
  8
VISIBLE
 10
2.249999999999998
 20
7.200000000000001
 30
0.125
 11
2.249999999999998
 21
7.075
 31
0.125
  0
LINE
  5
F4464
  8
VISIBLE
 10
1.399999999999999
 20
7.200000000000002
 30
0.125
 11
2.249999999999998
 21
7.200000000000001
 31
0.125
  0
LINE
  5
F4465
  8
VISIBLE
 10
1.399999999999999
 20
7.074999999999999
 30
0.125
 11
1.399999999999999
 21
7.200000000000002
 31
0.125
  0
LINE
  5
F4466
  8
VISIBLE
 10
1.399999999999999
 20
7.074999999999999
 30
0.125
 11
1.524999999999999
 21
7.074999999999999
 31
0.125
  0
LINE
  5
F4467
  8
VISIBLE
 10
1.524999999999999
 20
6.893999999999999
 30
0.125
 11
1.524999999999999
 21
7.074999999999999
 31
0.125
  0
LINE
  5
F4468
  8
VISIBLE
 10
1.524999999999999
 20
6.893999999999999
 30
0.125
 11
1.627198905790885
 21
6.893999999999999
 31
0.125
  0
LINE
  5
F4469
  8
VISIBLE
 10
1.627198905790885
 20
6.981499999999999
 30
0.125
 11
1.627198905790885
 21
6.893999999999999
 31
0.125
  0
LINE
  5
F446A
  8
VISIBLE
 10
1.736198905790885
 20
6.981499999999999
 30
0.125
 11
1.627198905790885
 21
6.981499999999999
 31
0.125
  0
LINE
  5
F446B
  8
VISIBLE
 10
1.736198905790885
 20
6.893999999999999
 30
0.125
 11
1.736198905790885
 21
6.981499999999999
 31
0.125
  0
LINE
  5
F446C
  8
VISIBLE
 10
1.736198905790885
 20
6.893999999999999
 30
0.125
 11
1.774999999999998
 21
6.893999999999999
 31
0.125
  0
LINE
  5
F446D
  8
VISIBLE
 10
1.774999999999998
 20
6.893999999999999
 30
0.125
 11
1.774999999999998
 21
6.755999999999999
 31
0.125
  0
LINE
  5
F446E
  8
VISIBLE
 10
1.774999999999998
 20
6.755999999999999
 30
0.125
 11
1.736198905790885
 21
6.755999999999999
 31
0.125
  0
LINE
  5
F446F
  8
VISIBLE
 10
1.736198905790885
 20
6.6685
 30
0.125
 11
1.736198905790885
 21
6.755999999999999
 31
0.125
  0
LINE
  5
F4470
  8
VISIBLE
 10
1.627198905790885
 20
6.6685
 30
0.125
 11
1.736198905790885
 21
6.6685
 31
0.125
  0
LINE
  5
F4471
  8
VISIBLE
 10
1.627198905790885
 20
6.755999999999999
 30
0.125
 11
1.627198905790885
 21
6.6685
 31
0.125
  0
LINE
  5
F4472
  8
VISIBLE
 10
1.627198905790885
 20
6.755999999999999
 30
0.125
 11
1.524999999999999
 21
6.755999999999999
 31
0.125
  0
LINE
  5
F4473
  8
VISIBLE
 10
1.524999999999999
 20
6.574999999999999
 30
0.125
 11
1.524999999999999
 21
6.755999999999999
 31
0.125
  0
LINE
  5
F4474
  8
VISIBLE
 10
1.399999999999999
 20
6.574999999999999
 30
0.125
 11
1.524999999999999
 21
6.574999999999999
 31
0.125
  0
LINE
  5
F4475
  8
VISIBLE
 10
1.4
 20
5.7
 30
0.125
 11
1.399999999999999
 21
6.574999999999999
 31
0.125
  0
ARC
  5
F4476
  8
VISIBLE
 10
0.8999999999999997
 20
5.7
 30
0.125
 40
0.5000000000000001
 50
270.0
 51
0.0
  0
LINE
  5
F4477
  8
VISIBLE
 10
-0.8999999999999999
 20
5.2
 30
0.125
 11
0.8999999999999997
 21
5.2
 31
0.125
  0
ARC
  5
F4478
  8
VISIBLE
 10
-0.8999999999999999
 20
5.7
 30
0.125
 40
0.5000000000000001
 50
180.0
 51
270.0
  0
LINE
  5
F4479
  8
VISIBLE
 10
-1.4
 20
6.574999999999999
 30
0.125
 11
-1.4
 21
5.7
 31
0.125
  0
LINE
  5
F447A
  8
VISIBLE
 10
-1.4
 20
6.574999999999999
 30
0.125
 11
-1.524999999999999
 21
6.574999999999999
 31
0.125
  0
LINE
  5
F447B
  8
VISIBLE
 10
-1.524999999999999
 20
6.574999999999999
 30
0.125
 11
-1.524999999999999
 21
6.755999999999999
 31
0.125
  0
LINE
  5
F447C
  8
VISIBLE
 10
-1.627198905790885
 20
6.755999999999999
 30
0.125
 11
-1.524999999999999
 21
6.755999999999999
 31
0.125
  0
LINE
  5
F447D
  8
VISIBLE
 10
-1.627198905790885
 20
6.755999999999999
 30
0.125
 11
-1.627198905790885
 21
6.6685
 31
0.125
  0
LINE
  5
F447E
  8
VISIBLE
 10
-1.627198905790885
 20
6.6685
 30
0.125
 11
-1.736198905790885
 21
6.6685
 31
0.125
  0
LINE
  5
F447F
  8
VISIBLE
 10
-1.736198905790885
 20
6.6685
 30
0.125
 11
-1.736198905790885
 21
6.755999999999999
 31
0.125
  0
LINE
  5
F4480
  8
VISIBLE
 10
-1.774999999999998
 20
6.755999999999999
 30
0.125
 11
-1.736198905790885
 21
6.755999999999999
 31
0.125
  0
LINE
  5
F4481
  8
VISIBLE
 10
-1.774999999999998
 20
6.893999999999999
 30
0.125
 11
-1.774999999999998
 21
6.755999999999999
 31
0.125
  0
LINE
  5
F4482
  8
VISIBLE
 10
-1.736198905790885
 20
6.893999999999999
 30
0.125
 11
-1.774999999999998
 21
6.893999999999999
 31
0.125
  0
LINE
  5
F4483
  8
VISIBLE
 10
-1.736198905790885
 20
6.893999999999999
 30
0.125
 11
-1.736198905790885
 21
6.981499999999999
 31
0.125
  0
LINE
  5
F4484
  8
VISIBLE
 10
-1.736198905790885
 20
6.981499999999999
 30
0.125
 11
-1.627198905790885
 21
6.981499999999999
 31
0.125
  0
LINE
  5
F4485
  8
VISIBLE
 10
-1.627198905790885
 20
6.981499999999999
 30
0.125
 11
-1.627198905790885
 21
6.893999999999999
 31
0.125
  0
LINE
  5
F4486
  8
VISIBLE
 10
-1.524999999999999
 20
6.893999999999999
 30
0.125
 11
-1.627198905790885
 21
6.893999999999999
 31
0.125
  0
LINE
  5
F4487
  8
VISIBLE
 10
-1.524999999999999
 20
6.893999999999999
 30
0.125
 11
-1.524999999999999
 21
7.074999999999999
 31
0.125
  0
LINE
  5
F4488
  8
VISIBLE
 10
-1.4
 20
7.074999999999999
 30
0.125
 11
-1.524999999999999
 21
7.074999999999999
 31
0.125
  0
LINE
  5
F4489
  8
VISIBLE
 10
-1.4
 20
7.199999999999999
 30
0.125
 11
-1.4
 21
7.074999999999999
 31
0.125
  0
LINE
  5
F448A
  8
VISIBLE
 10
-2.249999999999999
 20
7.199999999999999
 30
0.125
 11
-1.4
 21
7.199999999999999
 31
0.125
  0
LINE
  5
F448B
  8
VISIBLE
 10
-2.249999999999999
 20
7.199999999999999
 30
0.125
 11
-2.249999999999999
 21
7.075
 31
0.125
  0
LINE
  5
F448C
  8
VISIBLE
 10
-2.430999999999997
 20
7.075
 30
0.125
 11
-2.249999999999999
 21
7.075
 31
0.125
  0
LINE
  5
F448D
  8
VISIBLE
 10
-2.430999999999997
 20
6.982024612644527
 30
0.125
 11
-2.430999999999997
 21
7.075
 31
0.125
  0
LINE
  5
F448E
  8
VISIBLE
 10
-2.430999999999997
 20
6.982024612644527
 30
0.125
 11
-2.343499999999997
 21
6.982024612644526
 31
0.125
  0
LINE
  5
F448F
  8
VISIBLE
 10
-2.343499999999997
 20
6.873024612644526
 30
0.125
 11
-2.343499999999997
 21
6.982024612644526
 31
0.125
  0
LINE
  5
F4490
  8
VISIBLE
 10
-2.430999999999997
 20
6.873024612644526
 30
0.125
 11
-2.343499999999997
 21
6.873024612644526
 31
0.125
  0
LINE
  5
F4491
  8
VISIBLE
 10
-2.430999999999998
 20
6.825000000000003
 30
0.125
 11
-2.430999999999997
 21
6.873024612644526
 31
0.125
  0
LINE
  5
F4492
  8
VISIBLE
 10
-2.430999999999998
 20
6.825000000000003
 30
0.125
 11
-2.568999999999998
 21
6.825000000000003
 31
0.125
  0
LINE
  5
F4493
  8
VISIBLE
 10
-2.568999999999998
 20
6.825000000000003
 30
0.125
 11
-2.568999999999998
 21
6.873024612644526
 31
0.125
  0
LINE
  5
F4494
  8
VISIBLE
 10
-2.656499999999997
 20
6.873024612644526
 30
0.125
 11
-2.568999999999998
 21
6.873024612644526
 31
0.125
  0
LINE
  5
F4495
  8
VISIBLE
 10
-2.656499999999997
 20
6.873024612644526
 30
0.125
 11
-2.656499999999997
 21
6.982024612644526
 31
0.125
  0
LINE
  5
F4496
  8
VISIBLE
 10
-2.656499999999997
 20
6.982024612644526
 30
0.125
 11
-2.568999999999998
 21
6.982024612644527
 31
0.125
  0
LINE
  5
F4497
  8
VISIBLE
 10
-2.568999999999998
 20
6.982024612644527
 30
0.125
 11
-2.568999999999997
 21
7.075
 31
0.125
  0
LINE
  5
F4498
  8
VISIBLE
 10
-2.749999999999999
 20
7.075
 30
0.125
 11
-2.568999999999997
 21
7.075
 31
0.125
  0
LINE
  5
F4499
  8
VISIBLE
 10
-2.749999999999999
 20
7.199999999999999
 30
0.125
 11
-2.749999999999999
 21
7.075
 31
0.125
  0
LINE
  5
F449A
  8
VISIBLE
 10
-0.5000000000000001
 20
0.7500000000000002
 30
0.125
 11
0.5
 21
0.7500000000000003
 31
0.125
  0
LINE
  5
F449B
  8
VISIBLE
 10
-0.5000000000000001
 20
0.7500000000000002
 30
0.125
 11
-0.5000000000000001
 21
0.8750000000000002
 31
0.125
  0
LINE
  5
F449C
  8
VISIBLE
 10
-0.5000000000000001
 20
0.8750000000000002
 30
0.125
 11
0.5
 21
0.8750000000000002
 31
0.125
  0
LINE
  5
F449D
  8
VISIBLE
 10
0.5
 20
0.7500000000000003
 30
0.125
 11
0.5
 21
0.8750000000000002
 31
0.125
  0
LINE
  5
F449E
  8
VISIBLE
 10
1.056102362204725
 20
1.431102362204725
 30
0.125
 11
1.181102362204723
 21
1.431102362204723
 31
0.125
  0
LINE
  5
F449F
  8
VISIBLE
 10
1.056102362204724
 20
2.431102362204723
 30
0.125
 11
1.056102362204725
 21
1.431102362204725
 31
0.125
  0
LINE
  5
F44A0
  8
VISIBLE
 10
1.056102362204724
 20
2.431102362204723
 30
0.125
 11
1.181102362204723
 21
2.431102362204724
 31
0.125
  0
LINE
  5
F44A1
  8
VISIBLE
 10
1.181102362204723
 20
2.431102362204724
 30
0.125
 11
1.181102362204723
 21
1.431102362204723
 31
0.125
  0
LINE
  5
F44A2
  8
VISIBLE
 10
-1.056102362204725
 20
2.431102362204724
 30
0.125
 11
-1.181102362204723
 21
2.431102362204724
 31
0.125
  0
LINE
  5
F44A3
  8
VISIBLE
 10
-1.056102362204725
 20
2.431102362204724
 30
0.125
 11
-1.056102362204725
 21
1.431102362204721
 31
0.125
  0
LINE
  5
F44A4
  8
VISIBLE
 10
-1.056102362204725
 20
1.431102362204721
 30
0.125
 11
-1.181102362204723
 21
1.431102362204721
 31
0.125
  0
LINE
  5
F44A5
  8
VISIBLE
 10
-1.181102362204723
 20
2.431102362204724
 30
0.125
 11
-1.181102362204723
 21
1.431102362204721
 31
0.125
  0
ENDSEC
  0
EOF
