  0
SECTION
  2
HEADER
  9
$ACADVER
  1
AC1009
  9
$DWGCODEPAGE
  3
undefined
  9
$INSBASE
 10
0.0
 20
0.0
 30
0.0
  9
$EXTMIN
 10
1.000000000000000E+20
 20
1.000000000000000E+20
 30
1.000000000000000E+20
  9
$EXTMAX
 10
-1.000000000000000E+20
 20
-1.000000000000000E+20
 30
-1.000000000000000E+20
  9
$LIMMIN
 10
0.0
 20
0.0
  9
$LIMMAX
 10
12.0
 20
9.0
  9
$ORTHOMODE
 70
     0
  9
$REGENMODE
 70
     1
  9
$FILLMODE
 70
     1
  9
$QTEXTMODE
 70
     0
  9
$MIRRTEXT
 70
     1
  9
$DRAGMODE
 70
     2
  9
$LTSCALE
 40
1.0
  9
$OSMODE
 70
    37
  9
$ATTMODE
 70
     1
  9
$TEXTSIZE
 40
0.2
  9
$TRACEWID
 40
0.05
  9
$TEXTSTYLE
  7
STANDARD
  9
$CLAYER
  8
0
  9
$CELTYPE
  6
BYLAYER
  9
$CECOLOR
 62
   256
  9
$DIMSCALE
 40
1.0
  9
$DIMASZ
 40
0.18
  9
$DIMEXO
 40
0.0625
  9
$DIMDLI
 40
0.38
  9
$DIMRND
 40
0.0
  9
$DIMDLE
 40
0.0
  9
$DIMEXE
 40
0.18
  9
$DIMTP
 40
0.0
  9
$DIMTM
 40
0.0
  9
$DIMTXT
 40
0.18
  9
$DIMCEN
 40
0.09
  9
$DIMTSZ
 40
0.0
  9
$DIMTOL
 70
     0
  9
$DIMLIM
 70
     0
  9
$DIMTIH
 70
     1
  9
$DIMTOH
 70
     1
  9
$DIMSE1
 70
     0
  9
$DIMSE2
 70
     0
  9
$DIMTAD
 70
     0
  9
$DIMZIN
 70
     0
  9
$DIMBLK
  1

  9
$DIMASO
 70
     1
  9
$DIMSHO
 70
     1
  9
$DIMPOST
  1

  9
$DIMAPOST
  1

  9
$DIMALT
 70
     0
  9
$DIMALTD
 70
     2
  9
$DIMALTF
 40
25.4
  9
$DIMLFAC
 40
1.0
  9
$DIMTOFL
 70
     0
  9
$DIMTVP
 40
0.0
  9
$DIMTIX
 70
     0
  9
$DIMSOXD
 70
     0
  9
$DIMSAH
 70
     0
  9
$DIMBLK1
  1

  9
$DIMBLK2
  1

  9
$DIMSTYLE
  2
STANDARD
  9
$DIMCLRD
 70
     0
  9
$DIMCLRE
 70
     0
  9
$DIMCLRT
 70
     0
  9
$DIMTFAC
 40
1.0
  9
$DIMGAP
 40
0.09
  9
$LUNITS
 70
     2
  9
$LUPREC
 70
     4
  9
$SKETCHINC
 40
0.1
  9
$FILLETRAD
 40
0.5
  9
$AUNITS
 70
     0
  9
$AUPREC
 70
     0
  9
$MENU
  1
.
  9
$ELEVATION
 40
0.0
  9
$PELEVATION
 40
0.0
  9
$THICKNESS
 40
0.0
  9
$LIMCHECK
 70
     0
  9
$CHAMFERA
 40
0.0
  9
$CHAMFERB
 40
0.0
  9
$SKPOLY
 70
     0
  9
$TDCREATE
 40
2457183.78724537
  9
$TDUPDATE
 40
2457183.78724537
  9
$TDINDWG
 40
0.0000000116
  9
$TDUSRTIMER
 40
0.0000000116
  9
$USRTIMER
 70
     1
  9
$ANGBASE
 50
0.0
  9
$ANGDIR
 70
     0
  9
$PDMODE
 70
     0
  9
$PDSIZE
 40
0.0
  9
$PLINEWID
 40
0.0
  9
$COORDS
 70
     1
  9
$SPLFRAME
 70
     0
  9
$SPLINETYPE
 70
     6
  9
$SPLINESEGS
 70
     8
  9
$ATTDIA
 70
     0
  9
$ATTREQ
 70
     1
  9
$HANDLING
 70
     1
  9
$HANDSEED
  5
1000010D
  9
$SURFTAB1
 70
     6
  9
$SURFTAB2
 70
     6
  9
$SURFTYPE
 70
     6
  9
$SURFU
 70
     6
  9
$SURFV
 70
     6
  9
$UCSNAME
  2

  9
$UCSORG
 10
0.0
 20
0.0
 30
0.0
  9
$UCSXDIR
 10
1.0
 20
0.0
 30
0.0
  9
$UCSYDIR
 10
0.0
 20
1.0
 30
0.0
  9
$PUCSNAME
  2

  9
$PUCSORG
 10
0.0
 20
0.0
 30
0.0
  9
$PUCSXDIR
 10
1.0
 20
0.0
 30
0.0
  9
$PUCSYDIR
 10
0.0
 20
1.0
 30
0.0
  9
$USERI1
 70
     0
  9
$USERI2
 70
     0
  9
$USERI3
 70
     0
  9
$USERI4
 70
     0
  9
$USERI5
 70
     0
  9
$USERR1
 40
0.0
  9
$USERR2
 40
0.0
  9
$USERR3
 40
0.0
  9
$USERR4
 40
0.0
  9
$USERR5
 40
0.0
  9
$WORLDVIEW
 70
     1
  9
$SHADEDGE
 70
     3
  9
$SHADEDIF
 70
    70
  9
$TILEMODE
 70
     1
  9
$MAXACTVP
 70
    64
  9
$PLIMCHECK
 70
     0
  9
$PEXTMIN
 10
1.000000000000000E+20
 20
1.000000000000000E+20
 30
1.000000000000000E+20
  9
$PEXTMAX
 10
-1.000000000000000E+20
 20
-1.000000000000000E+20
 30
-1.000000000000000E+20
  9
$PLIMMIN
 10
0.0
 20
0.0
  9
$PLIMMAX
 10
12.0
 20
9.0
  9
$UNITMODE
 70
     0
  9
$VISRETAIN
 70
     1
  9
$PLINEGEN
 70
     0
  9
$PSLTSCALE
 70
     1
  0
ENDSEC
  0
SECTION
  2
TABLES
  0
TABLE
  2
VPORT
 70
     1
  0
VPORT
  2
*ACTIVE
 70
     0
 10
0.0
 20
0.0
 11
1.0
 21
1.0
 12
10.42990654205607
 22
4.5
 13
0.0
 23
0.0
 14
0.5
 24
0.5
 15
0.5
 25
0.5
 16
0.0
 26
0.0
 36
1.0
 17
0.0
 27
0.0
 37
0.0
 40
9.0
 41
1.972972972850329
 42
50.0
 43
0.0
 44
0.0
 50
0.0
 51
0.0
 71
     0
 72
   100
 73
     1
 74
     3
 75
     0
 76
     0
 77
     0
 78
     0
  0
ENDTAB
  0
TABLE
  2
LTYPE
 70
     5
  0
LTYPE
  2
CONTINUOUS
 70
     0
  3
Solid line
 72
    65
 73
     0
 40
0.0
  0
LTYPE
  2
HIDDEN
 70
     0
  3
Hidden line ____ ____ ____ ____ 
 72
    83
 73
     2
 40
0.125
 49
0.25
 49
-0.125
  0
LTYPE
  2
PHANTOM
 70
     0
  3
Phantom line ______  __  __  ______  __  __
 72
    83
 73
     6
 40
0.5
 49
0.625
 49
-0.125
 49
0.125
 49
-0.125
 49
0.125
 49
-0.125
  0
LTYPE
  2
CENTER
 70
     0
  3
Center line ____ _ ____ _ ____ _
 72
    83
 73
     4
 40
0.5
 49
0.625
 49
-0.125
 49
0.125
 49
-0.125
  0
LTYPE
  2
DASHED
 70
     0
  3
Dashed line __ __ __ __
 72
    83
 73
     2
 40
0.25
 49
0.5
 49
-0.25
  0
ENDTAB
  0
TABLE
  2
LAYER
 70
     5
  0
LAYER
  2
0
 70
     0
 62
     7
  6
CONTINUOUS
  0
LAYER
  2
HIDDEN
 70
     0
 62
    -7
  6
HIDDEN
  0
LAYER
  2
VISIBLE
 70
     0
 62
     7
  6
CONTINUOUS
  0
LAYER
  2
TANGENT_LINES
 70
     0
 62
     7
  6
CONTINUOUS
  0
LAYER
  2
INVISIBLE_LINES
 70
     0
 62
    -7
  6
CONTINUOUS
  0
ENDTAB
  0
TABLE
  2
STYLE
 70
     2
  0
STYLE
  2
STANDARD
 70
     0
 40
0.0
 41
1.0
 50
0.0
 71
     0
 42
0.2
  3
txt
  4

  0
STYLE
  2
ODATTFSTYLE
 70
     0
 40
0.0
 41
1.0
 50
0.0
 71
     0
 42
0.2
  3
Verdana.ttf
  4

  0
ENDTAB
  0
TABLE
  2
VIEW
 70
     0
  0
ENDTAB
  0
TABLE
  2
UCS
 70
     0
  0
ENDTAB
  0
TABLE
  2
APPID
 70
     1
  0
APPID
  2
ACAD
 70
     0
  0
ENDTAB
  0
TABLE
  2
DIMSTYLE
 70
     1
  0
DIMSTYLE
  2
STANDARD
 70
     0
  3

  4

  5

  6

  7

 40
1.0
 41
0.18
 42
0.0625
 43
0.38
 44
0.18
 45
0.0
 46
0.0
 47
0.0
 48
0.0
140
0.18
141
0.09
142
0.0
143
25.4
144
1.0
145
0.0
146
1.0
147
0.09
 71
     0
 72
     0
 73
     1
 74
     1
 75
     0
 76
     0
 77
     0
 78
     0
170
     0
171
     2
172
     0
173
     0
174
     0
175
     0
176
     0
177
     0
178
     0
  0
ENDTAB
  0
ENDSEC
  0
SECTION
  2
BLOCKS
  0
BLOCK
  8
0
  2
$MODEL_SPACE
 70
     0
 10
0.0
 20
0.0
 30
0.0
  3
$MODEL_SPACE
  1

  0
ENDBLK
  5
21
  8
0
  0
BLOCK
 67
     1
  8
0
  2
$PAPER_SPACE
 70
     0
 10
0.0
 20
0.0
 30
0.0
  3
$PAPER_SPACE
  1

  0
ENDBLK
  5
1D
 67
     1
  8
0
  0
ENDSEC
  0
SECTION
  2
ENTITIES
  0
LINE
  5
F4351
  8
VISIBLE
 10
0.1
 20
-0.1002243454253654
 30
0.125
 11
0.640291036853069
 21
-0.1002243454253726
 31
0.125
  0
LINE
  5
F4352
  8
VISIBLE
 10
0.1
 20
-0.1002243454253654
 30
0.125
 11
0.1
 21
-0.85
 31
0.125
  0
LINE
  5
F4353
  8
VISIBLE
 10
0.1
 20
-0.85
 30
0.125
 11
0.2249999999999999
 21
-0.8499999999999994
 31
0.125
  0
LINE
  5
F4354
  8
VISIBLE
 10
0.2249999999999999
 20
-0.8499999999999994
 30
0.125
 11
0.2249999999999999
 21
-1.031224345425365
 31
0.125
  0
LINE
  5
F4355
  8
VISIBLE
 10
0.2249999999999999
 20
-1.031224345425365
 30
0.125
 11
0.3343926904004391
 21
-1.031224345425365
 31
0.125
  0
LINE
  5
F4356
  8
VISIBLE
 10
0.3343926904004391
 20
-0.94375
 30
0.125
 11
0.3343926904004391
 21
-1.031224345425365
 31
0.125
  0
LINE
  5
F4357
  8
VISIBLE
 10
0.3343926904004391
 20
-0.94375
 30
0.125
 11
0.443767690400439
 21
-0.94375
 31
0.125
  0
LINE
  5
F4358
  8
VISIBLE
 10
0.443767690400439
 20
-0.94375
 30
0.125
 11
0.443767690400439
 21
-1.031224345425366
 31
0.125
  0
LINE
  5
F4359
  8
VISIBLE
 10
0.443767690400439
 20
-1.031224345425366
 30
0.125
 11
0.475
 21
-1.031224345425366
 31
0.125
  0
LINE
  5
F435A
  8
VISIBLE
 10
0.475
 20
-1.031224345425366
 30
0.125
 11
0.475
 21
-1.169224345425365
 31
0.125
  0
LINE
  5
F435B
  8
VISIBLE
 10
0.443767690400439
 20
-1.169224345425365
 30
0.125
 11
0.475
 21
-1.169224345425365
 31
0.125
  0
LINE
  5
F435C
  8
VISIBLE
 10
0.443767690400439
 20
-1.169224345425365
 30
0.125
 11
0.443767690400439
 21
-1.25625
 31
0.125
  0
LINE
  5
F435D
  8
VISIBLE
 10
0.3343926904004391
 20
-1.25625
 30
0.125
 11
0.443767690400439
 21
-1.25625
 31
0.125
  0
LINE
  5
F435E
  8
VISIBLE
 10
0.3343926904004391
 20
-1.169224345425365
 30
0.125
 11
0.3343926904004391
 21
-1.25625
 31
0.125
  0
LINE
  5
F435F
  8
VISIBLE
 10
0.2249999999999999
 20
-1.169224345425365
 30
0.125
 11
0.3343926904004391
 21
-1.169224345425365
 31
0.125
  0
LINE
  5
F4360
  8
VISIBLE
 10
0.2249999999999999
 20
-1.169224345425365
 30
0.125
 11
0.2249999999999999
 21
-1.350000000000001
 31
0.125
  0
LINE
  5
F4361
  8
VISIBLE
 10
0.1
 20
-1.35
 30
0.125
 11
0.2249999999999999
 21
-1.350000000000001
 31
0.125
  0
LINE
  5
F4362
  8
VISIBLE
 10
0.1
 20
-1.35
 30
0.125
 11
0.1000000000000001
 21
-2.100224345425366
 31
0.125
  0
LINE
  5
F4363
  8
VISIBLE
 10
0.1000000000000001
 20
-2.100224345425366
 30
0.125
 11
0.6402910368530669
 21
-2.100224345425356
 31
0.125
  0
ARC
  5
F4364
  8
VISIBLE
 10
-4.579860351089328
 20
-1.773876424439658
 30
-0.125
 40
3.953063286516377
 50
355.2645171154537
 51
7.02785760314377
210
0.0
220
0.0
230
-1.0
  0
ARC
  5
F4365
  8
VISIBLE
 10
-3.266865758482044
 20
-1.773876424439658
 30
0.125
 40
3.953063286516377
 50
355.2645171154535
 51
7.02785760314377
  0
LINE
  5
F4366
  8
VISIBLE
 10
0.672703555754217
 20
-2.100224345425366
 30
0.125
 11
0.8402910368530674
 21
-2.100224345425366
 31
0.125
  0
ARC
  5
F4367
  8
VISIBLE
 10
-4.779860351089328
 20
-1.773876424439658
 30
-0.125
 40
3.953063286516377
 50
355.2645171154535
 51
7.02785760314377
210
0.0
220
0.0
230
-1.0
  0
ARC
  5
F4368
  8
VISIBLE
 10
-3.066865758482044
 20
-1.773876424439658
 30
0.125
 40
3.953063286516377
 50
355.2645171154535
 51
7.02785760314377
  0
LINE
  5
F4369
  8
VISIBLE
 10
0.8727035557542171
 20
-2.100224345425366
 30
0.125
 11
1.040291036853066
 21
-2.100224345425366
 31
0.125
  0
ARC
  5
F436A
  8
VISIBLE
 10
-4.979860351089328
 20
-1.773876424439658
 30
-0.125
 40
3.953063286516377
 50
355.2645171154535
 51
7.02785760314377
210
0.0
220
0.0
230
-1.0
  0
ARC
  5
F436B
  8
VISIBLE
 10
-2.866865758482045
 20
-1.773876424439658
 30
0.125
 40
3.953063286516377
 50
355.2645171154535
 51
7.02785760314377
  0
LINE
  5
F436C
  8
VISIBLE
 10
1.072703555754217
 20
-2.100224345425366
 30
0.125
 11
1.240291036853066
 21
-2.100224345425366
 31
0.125
  0
ARC
  5
F436D
  8
VISIBLE
 10
-5.179860351089328
 20
-1.773876424439658
 30
-0.125
 40
3.953063286516377
 50
355.2645171154535
 51
7.02785760314377
210
0.0
220
0.0
230
-1.0
  0
ARC
  5
F436E
  8
VISIBLE
 10
-2.666865758482047
 20
-1.773876424439658
 30
0.125
 40
3.953063286516377
 50
355.2645171154535
 51
7.02785760314377
  0
LINE
  5
F436F
  8
VISIBLE
 10
1.272703555754215
 20
-2.100224345425366
 30
0.125
 11
1.440291036853067
 21
-2.100224345425366
 31
0.125
  0
ARC
  5
F4370
  8
VISIBLE
 10
-5.379860351089327
 20
-1.773876424439658
 30
-0.125
 40
3.953063286516377
 50
355.2645171154535
 51
7.02785760314377
210
0.0
220
0.0
230
-1.0
  0
ARC
  5
F4371
  8
VISIBLE
 10
-2.466865758482045
 20
-1.773876424439658
 30
0.125
 40
3.953063286516377
 50
355.2645171154535
 51
7.02785760314377
  0
LINE
  5
F4372
  8
VISIBLE
 10
1.472703555754216
 20
-2.100224345425366
 30
0.125
 11
1.640291036853067
 21
-2.100224345425366
 31
0.125
  0
ARC
  5
F4373
  8
VISIBLE
 10
-5.579860351089327
 20
-1.773876424439658
 30
-0.125
 40
3.953063286516377
 50
355.2645171154535
 51
7.02785760314377
210
0.0
220
0.0
230
-1.0
  0
ARC
  5
F4374
  8
VISIBLE
 10
-2.266865758482046
 20
-1.773876424439658
 30
0.125
 40
3.953063286516377
 50
355.2645171154535
 51
7.02785760314377
  0
LINE
  5
F4375
  8
VISIBLE
 10
1.672703555754215
 20
-2.100224345425366
 30
0.125
 11
1.840291036853066
 21
-2.100224345425366
 31
0.125
  0
ARC
  5
F4376
  8
VISIBLE
 10
-5.779860351089328
 20
-1.773876424439658
 30
-0.125
 40
3.953063286516377
 50
355.2645171154535
 51
7.02785760314377
210
0.0
220
0.0
230
-1.0
  0
ARC
  5
F4377
  8
VISIBLE
 10
-2.066865758482046
 20
-1.773876424439658
 30
0.125
 40
3.953063286516377
 50
355.2645171154535
 51
7.02785760314377
  0
LINE
  5
F4378
  8
VISIBLE
 10
1.872703555754216
 20
-2.100224345425366
 30
0.125
 11
2.040291036853064
 21
-2.100224345425366
 31
0.125
  0
ARC
  5
F4379
  8
VISIBLE
 10
-5.979860351089325
 20
-1.773876424439658
 30
-0.125
 40
3.953063286516377
 50
355.2645171154535
 51
7.02785760314377
210
0.0
220
0.0
230
-1.0
  0
ARC
  5
F437A
  8
VISIBLE
 10
-1.866865758482046
 20
-1.773876424439658
 30
0.125
 40
3.953063286516377
 50
355.2645171154535
 51
7.02785760314377
  0
LINE
  5
F437B
  8
VISIBLE
 10
2.072703555754215
 20
-2.100224345425366
 30
0.125
 11
2.240291036853065
 21
-2.100224345425366
 31
0.125
  0
ARC
  5
F437C
  8
VISIBLE
 10
-6.179860351089325
 20
-1.773876424439658
 30
-0.125
 40
3.953063286516377
 50
355.2645171154535
 51
7.02785760314377
210
0.0
220
0.0
230
-1.0
  0
ARC
  5
F437D
  8
VISIBLE
 10
-1.666865758482047
 20
-1.773876424439658
 30
0.125
 40
3.953063286516377
 50
355.2645171154535
 51
7.02785760314377
  0
LINE
  5
F437E
  8
VISIBLE
 10
2.272703555754214
 20
-2.100224345425366
 30
0.125
 11
2.440291036853066
 21
-2.100224345425366
 31
0.125
  0
ARC
  5
F437F
  8
VISIBLE
 10
-6.379860351089326
 20
-1.773876424439658
 30
-0.125
 40
3.953063286516377
 50
355.2645171154535
 51
7.02785760314377
210
0.0
220
0.0
230
-1.0
  0
ARC
  5
F4380
  8
VISIBLE
 10
-1.466865758482046
 20
-1.773876424439658
 30
0.125
 40
3.953063286516377
 50
355.2645171154535
 51
7.02785760314377
  0
LINE
  5
F4381
  8
VISIBLE
 10
2.640291036853066
 20
-2.100224345425366
 30
0.125
 11
2.472703555754215
 21
-2.100224345425366
 31
0.125
  0
ARC
  5
F4382
  8
VISIBLE
 10
-6.579860351089328
 20
-1.773876424439658
 30
-0.125
 40
3.953063286516377
 50
355.2645171154535
 51
7.02785760314377
210
0.0
220
0.0
230
-1.0
  0
ARC
  5
F4383
  8
VISIBLE
 10
-1.266865758482045
 20
-1.773876424439658
 30
0.125
 40
3.953063286516377
 50
355.2645171154537
 51
7.02785760314377
  0
LINE
  5
F4384
  8
VISIBLE
 10
2.94284059072104
 20
-2.100224345425366
 30
0.125
 11
2.672703555754217
 21
-2.100224345425356
 31
0.125
  0
LINE
  5
F4385
  8
VISIBLE
 10
2.94284059072104
 20
-0.1002243454253653
 30
0.125
 11
2.94284059072104
 21
-2.100224345425366
 31
0.125
  0
LINE
  5
F4386
  8
VISIBLE
 10
2.672703555754217
 20
-0.1002243454253726
 30
0.125
 11
2.94284059072104
 21
-0.1002243454253653
 31
0.125
  0
ARC
  5
F4387
  8
VISIBLE
 10
1.266865758482045
 20
-0.4265722664110707
 30
-0.125
 40
3.953063286516377
 50
175.2645171154537
 51
187.0278576031437
210
0.0
220
0.0
230
-1.0
  0
ARC
  5
F4388
  8
VISIBLE
 10
6.579860351089329
 20
-0.4265722664110707
 30
0.125
 40
3.953063286516377
 50
175.2645171154537
 51
187.0278576031437
  0
LINE
  5
F4389
  8
VISIBLE
 10
2.640291036853067
 20
-0.1002243454253726
 30
0.125
 11
2.472703555754213
 21
-0.1002243454253653
 31
0.125
  0
ARC
  5
F438A
  8
VISIBLE
 10
1.466865758482046
 20
-0.4265722664110707
 30
-0.125
 40
3.953063286516377
 50
175.2645171154536
 51
187.0278576031437
210
0.0
220
0.0
230
-1.0
  0
ARC
  5
F438B
  8
VISIBLE
 10
6.379860351089329
 20
-0.4265722664110707
 30
0.125
 40
3.953063286516377
 50
175.2645171154536
 51
187.0278576031437
  0
LINE
  5
F438C
  8
VISIBLE
 10
2.272703555754212
 20
-0.1002243454253653
 30
0.125
 11
2.440291036853068
 21
-0.1002243454253653
 31
0.125
  0
ARC
  5
F438D
  8
VISIBLE
 10
1.666865758482049
 20
-0.4265722664110707
 30
-0.125
 40
3.953063286516377
 50
175.2645171154536
 51
187.0278576031437
210
0.0
220
0.0
230
-1.0
  0
ARC
  5
F438E
  8
VISIBLE
 10
6.179860351089325
 20
-0.4265722664110707
 30
0.125
 40
3.953063286516377
 50
175.2645171154536
 51
187.0278576031437
  0
LINE
  5
F438F
  8
VISIBLE
 10
2.072703555754214
 20
-0.1002243454253653
 30
0.125
 11
2.240291036853065
 21
-0.1002243454253653
 31
0.125
  0
ARC
  5
F4390
  8
VISIBLE
 10
1.866865758482047
 20
-0.4265722664110707
 30
-0.125
 40
3.953063286516377
 50
175.2645171154536
 51
187.0278576031437
210
0.0
220
0.0
230
-1.0
  0
ARC
  5
F4391
  8
VISIBLE
 10
5.979860351089325
 20
-0.4265722664110707
 30
0.125
 40
3.953063286516377
 50
175.2645171154536
 51
187.0278576031437
  0
LINE
  5
F4392
  8
VISIBLE
 10
1.872703555754215
 20
-0.1002243454253653
 30
0.125
 11
2.040291036853064
 21
-0.1002243454253653
 31
0.125
  0
ARC
  5
F4393
  8
VISIBLE
 10
2.066865758482046
 20
-0.4265722664110707
 30
-0.125
 40
3.953063286516377
 50
175.2645171154536
 51
187.0278576031437
210
0.0
220
0.0
230
-1.0
  0
ARC
  5
F4394
  8
VISIBLE
 10
5.779860351089327
 20
-0.4265722664110707
 30
0.125
 40
3.953063286516377
 50
175.2645171154536
 51
187.0278576031437
  0
LINE
  5
F4395
  8
VISIBLE
 10
1.672703555754216
 20
-0.1002243454253653
 30
0.125
 11
1.840291036853066
 21
-0.1002243454253653
 31
0.125
  0
ARC
  5
F4396
  8
VISIBLE
 10
2.266865758482045
 20
-0.4265722664110707
 30
-0.125
 40
3.953063286516377
 50
175.2645171154536
 51
187.0278576031437
210
0.0
220
0.0
230
-1.0
  0
ARC
  5
F4397
  8
VISIBLE
 10
5.579860351089327
 20
-0.4265722664110707
 30
0.125
 40
3.953063286516377
 50
175.2645171154536
 51
187.0278576031437
  0
LINE
  5
F4398
  8
VISIBLE
 10
1.472703555754216
 20
-0.1002243454253653
 30
0.125
 11
1.640291036853067
 21
-0.1002243454253653
 31
0.125
  0
ARC
  5
F4399
  8
VISIBLE
 10
2.466865758482045
 20
-0.4265722664110707
 30
-0.125
 40
3.953063286516377
 50
175.2645171154536
 51
187.0278576031437
210
0.0
220
0.0
230
-1.0
  0
ARC
  5
F439A
  8
VISIBLE
 10
5.379860351089326
 20
-0.4265722664110707
 30
0.125
 40
3.953063286516377
 50
175.2645171154536
 51
187.0278576031437
  0
LINE
  5
F439B
  8
VISIBLE
 10
1.272703555754216
 20
-0.1002243454253653
 30
0.125
 11
1.440291036853065
 21
-0.1002243454253653
 31
0.125
  0
ARC
  5
F439C
  8
VISIBLE
 10
2.666865758482045
 20
-0.4265722664110707
 30
-0.125
 40
3.953063286516377
 50
175.2645171154536
 51
187.0278576031437
210
0.0
220
0.0
230
-1.0
  0
ARC
  5
F439D
  8
VISIBLE
 10
5.179860351089328
 20
-0.4265722664110707
 30
0.125
 40
3.953063286516377
 50
175.2645171154536
 51
187.0278576031437
  0
LINE
  5
F439E
  8
VISIBLE
 10
1.072703555754217
 20
-0.1002243454253653
 30
0.125
 11
1.240291036853066
 21
-0.1002243454253653
 31
0.125
  0
ARC
  5
F439F
  8
VISIBLE
 10
2.866865758482045
 20
-0.4265722664110707
 30
-0.125
 40
3.953063286516377
 50
175.2645171154536
 51
187.0278576031437
210
0.0
220
0.0
230
-1.0
  0
ARC
  5
F43A0
  8
VISIBLE
 10
4.979860351089329
 20
-0.4265722664110707
 30
0.125
 40
3.953063286516377
 50
175.2645171154536
 51
187.0278576031437
  0
LINE
  5
F43A1
  8
VISIBLE
 10
0.8727035557542165
 20
-0.1002243454253653
 30
0.125
 11
1.040291036853068
 21
-0.1002243454253653
 31
0.125
  0
ARC
  5
F43A2
  8
VISIBLE
 10
3.066865758482045
 20
-0.4265722664110707
 30
-0.125
 40
3.953063286516377
 50
175.2645171154536
 51
187.0278576031437
210
0.0
220
0.0
230
-1.0
  0
ARC
  5
F43A3
  8
VISIBLE
 10
4.779860351089329
 20
-0.4265722664110707
 30
0.125
 40
3.953063286516377
 50
175.2645171154536
 51
187.0278576031437
  0
LINE
  5
F43A4
  8
VISIBLE
 10
0.6727035557542181
 20
-0.1002243454253653
 30
0.125
 11
0.8402910368530685
 21
-0.1002243454253653
 31
0.125
  0
ARC
  5
F43A5
  8
VISIBLE
 10
3.266865758482044
 20
-0.4265722664110707
 30
-0.125
 40
3.953063286516377
 50
175.2645171154536
 51
187.0278576031437
210
0.0
220
0.0
230
-1.0
  0
ARC
  5
F43A6
  8
VISIBLE
 10
4.579860351089331
 20
-0.4265722664110707
 30
0.125
 40
3.953063286516377
 50
175.2645171154537
 51
187.0278576031437
  0
ARC
  5
F43A7
  8
VISIBLE
 10
-8.857585866968531
 20
-1.100440845425353
 30
0.125
 40
9.85528376468656
 50
354.759095369323
 51
5.240904630676912
  0
ARC
  5
F43A8
  8
VISIBLE
 10
-10.77058045957581
 20
-1.100440845425376
 30
-0.125
 40
9.85528376468656
 50
354.7590953693231
 51
5.240904630677014
210
0.0
220
0.0
230
-1.0
  0
ARC
  5
F43A9
  8
VISIBLE
 10
-8.457585866968529
 20
-1.100440845425376
 30
0.125
 40
9.85528376468656
 50
354.7590953693232
 51
5.240904630677014
  0
ARC
  5
F43AA
  8
VISIBLE
 10
-11.17058045957581
 20
-1.100440845425352
 30
-0.125
 40
9.85528376468656
 50
354.759095369323
 51
5.240904630676912
210
0.0
220
0.0
230
-1.0
  0
ARC
  5
F43AB
  8
VISIBLE
 10
-8.057585866968529
 20
-1.10044084542537
 30
0.125
 40
9.85528376468656
 50
354.7590953693231
 51
5.240904630677014
  0
ARC
  5
F43AC
  8
VISIBLE
 10
-11.5705804595758
 20
-1.100440845425358
 30
-0.125
 40
9.85528376468656
 50
354.759095369323
 51
5.240904630676912
210
0.0
220
0.0
230
-1.0
  0
ARC
  5
F43AD
  8
VISIBLE
 10
-7.85758586696853
 20
-1.100440845425364
 30
0.125
 40
9.85528376468656
 50
354.7590953693231
 51
5.240904630676963
  0
ARC
  5
F43AE
  8
VISIBLE
 10
-11.77058045957581
 20
-1.100440845425364
 30
-0.125
 40
9.85528376468656
 50
354.7590953693231
 51
5.240904630676963
210
0.0
220
0.0
230
-1.0
  0
ARC
  5
F43AF
  8
VISIBLE
 10
-7.457585866968525
 20
-1.100440845425364
 30
0.125
 40
9.85528376468656
 50
354.7590953693231
 51
5.240904630676963
  0
ARC
  5
F43B0
  8
VISIBLE
 10
-12.17058045957581
 20
-1.100440845425364
 30
-0.125
 40
9.85528376468656
 50
354.7590953693231
 51
5.240904630676963
210
0.0
220
0.0
230
-1.0
  0
ARC
  5
F43B1
  8
VISIBLE
 10
-7.257585866968532
 20
-1.100440845425364
 30
0.125
 40
9.85528376468656
 50
354.7590953693231
 51
5.240904630676963
  0
ARC
  5
F43B2
  8
VISIBLE
 10
-12.37058045957581
 20
-1.100440845425364
 30
-0.125
 40
9.85528376468656
 50
354.7590953693231
 51
5.240904630676963
210
0.0
220
0.0
230
-1.0
  0
ARC
  5
F43B3
  8
VISIBLE
 10
-7.057585866968529
 20
-1.100440845425364
 30
0.125
 40
9.85528376468656
 50
354.7590953693231
 51
5.240904630676963
  0
ARC
  5
F43B4
  8
VISIBLE
 10
-12.57058045957581
 20
-1.100440845425364
 30
-0.125
 40
9.85528376468656
 50
354.7590953693231
 51
5.240904630676963
210
0.0
220
0.0
230
-1.0
  0
ARC
  5
F43B5
  8
VISIBLE
 10
-7.657585866968529
 20
-1.100440845425364
 30
0.125
 40
9.85528376468656
 50
354.7590953693231
 51
5.240904630676963
  0
ARC
  5
F43B6
  8
VISIBLE
 10
-11.97058045957581
 20
-1.100440845425364
 30
-0.125
 40
9.85528376468656
 50
354.7590953693231
 51
5.240904630676963
210
0.0
220
0.0
230
-1.0
  0
ARC
  5
F43B7
  8
VISIBLE
 10
-8.25758586696853
 20
-1.100440845425364
 30
0.125
 40
9.85528376468656
 50
354.7590953693231
 51
5.240904630676963
  0
ARC
  5
F43B8
  8
VISIBLE
 10
-11.37058045957581
 20
-1.100440845425364
 30
-0.125
 40
9.85528376468656
 50
354.7590953693231
 51
5.240904630676963
210
0.0
220
0.0
230
-1.0
  0
ARC
  5
F43B9
  8
VISIBLE
 10
-8.657585866968528
 20
-1.100440845425364
 30
0.125
 40
9.85528376468656
 50
354.7590953693231
 51
5.240904630676963
  0
ARC
  5
F43BA
  8
VISIBLE
 10
-10.97058045957581
 20
-1.100440845425364
 30
-0.125
 40
9.85528376468656
 50
354.7590953693231
 51
5.240904630676963
210
0.0
220
0.0
230
-1.0
  0
ARC
  5
F43BB
  8
VISIBLE
 10
-9.057585866968527
 20
-1.100440845425364
 30
0.125
 40
9.85528376468656
 50
354.7590953693231
 51
5.240904630676963
  0
ARC
  5
F43BC
  8
VISIBLE
 10
-10.57058045957581
 20
-1.100440845425364
 30
-0.125
 40
9.85528376468656
 50
354.7590953693231
 51
5.240904630676963
210
0.0
220
0.0
230
-1.0
  0
ENDSEC
  0
EOF
